<svg xmlns="http://www.w3.org/2000/svg" width="256" height="256"><path fill="#1976D2" fill-opacity=".522" fill-rule="evenodd" d="M0 127.511v116.497l128.25-.254 128.25-.254.254-116.5.254-116.5-128.504.258L0 11.015zm.484-.011c0 64.35.119 90.528.266 58.173.146-32.355.146-85.005 0-117C.603 36.678.484 63.15.484 127.5"/><path fill="#1976D2" fill-opacity=".77" fill-rule="evenodd" d="M0 127.511v116.497l128.25-.254 128.25-.254.254-116.5.254-116.5-128.504.258L0 11.015zm.484-.011c0 64.35.119 90.528.266 58.173.146-32.355.146-85.005 0-117C.603 36.678.484 63.15.484 127.5M27.5 36.861c-1.65 1.019-3.9 2.864-5 4.101-1.961 2.204-2.005 3.85-2.256 84.393-.251 80.58-.218 82.207 1.741 85.404 6.135 10.013 20.667 9.6 26.163-.743 1.758-3.308 1.852-7.545 1.852-83.55V46.4l-2.579-3.977c-1.418-2.187-3.93-4.752-5.581-5.7-3.928-2.254-10.571-2.191-14.34.138m184.515.329c-1.916 1.303-4.391 3.986-5.5 5.962-1.974 3.52-2.012 5.12-1.873 79.47.078 41.733.191 78.3.25 81.26.1 4.959.45 5.723 4.476 9.75 4.099 4.098 4.709 4.368 9.866 4.368 4.155 0 6.2-.544 8.381-2.229 4.429-3.421 5.297-4.408 6.381-7.261.641-1.687 1.004-31.367 1.004-82.174 0-87.809.28-83.864-6.282-88.537-4.649-3.31-12.317-3.59-16.703-.609m-65.82 89.31c.02 1.65.244 2.204.498 1.231s.237-2.323-.037-3-.481.119-.461 1.769"/><path fill="#1976D2" fill-opacity=".251" fill-rule="evenodd" d="M3 13.5c0 1.556-.567 2.5-1.5 2.5Q0 16 0 19t1.5 3T3 25t-1.5 3T0 31t1.5 3c.933 0 1.5.944 1.5 2.5S2.433 39 1.5 39Q0 39 0 42t1.5 3T3 48t-1.5 3c-.933 0-1.5.944-1.5 2.5S.567 56 1.5 56Q3 56 3 59t-1.5 3T0 65t1.5 3T3 71t-1.5 3c-.933 0-1.5.944-1.5 2.5S.567 79 1.5 79Q3 79 3 82t-1.5 3T0 88t1.5 3T3 94t-1.5 3c-.933 0-1.5.944-1.5 2.5s.567 2.5 1.5 2.5q1.5 0 1.5 3t-1.5 3-1.5 3 1.5 3c.933 0 1.5.944 1.5 2.5s-.567 2.5-1.5 2.5Q0 119 0 122t1.5 3 1.5 3-1.5 3-1.5 3 1.5 3c.933 0 1.5.944 1.5 2.5s-.567 2.5-1.5 2.5Q0 142 0 145t1.5 3 1.5 3-1.5 3-1.5 3 1.5 3c.933 0 1.5.944 1.5 2.5s-.567 2.5-1.5 2.5Q0 165 0 168t1.5 3 1.5 3-1.5 3c-.933 0-1.5.944-1.5 2.5s.567 2.5 1.5 2.5q1.5 0 1.5 3t-1.5 3-1.5 3 1.5 3 1.5 3-1.5 3c-.933 0-1.5.944-1.5 2.5s.567 2.5 1.5 2.5q1.5 0 1.5 3t-1.5 3-1.5 3 1.5 3 1.5 3-1.5 3c-.933 0-1.5.944-1.5 2.5s.567 2.5 1.5 2.5q1.5 0 1.5 3t-1.5 3-1.5 3 1.5 3c.833 0 1.5.889 1.5 2 0 1.556.667 2 3 2s3-.444 3-2 .667-2 3-2 3 .444 3 2 .667 2 3 2 3-.444 3-2c0-1.467.667-2 2.5-2s2.5.533 2.5 2c0 1.556.667 2 3 2s3-.444 3-2 .667-2 3-2 3 .444 3 2 .667 2 3 2 3-.444 3-2c0-1.467.667-2 2.5-2s2.5.533 2.5 2c0 1.556.667 2 3 2s3-.444 3-2 .667-2 3-2 3 .444 3 2c0 1.467.667 2 2.5 2s2.5-.533 2.5-2c0-1.556.667-2 3-2s3 .444 3 2 .667 2 3 2 3-.444 3-2 .667-2 3-2 3 .444 3 2c0 1.467.667 2 2.5 2s2.5-.533 2.5-2c0-1.556.667-2 3-2s3 .444 3 2 .667 2 3 2 3-.444 3-2 .667-2 3-2 3 .444 3 2c0 1.467.667 2 2.5 2s2.5-.533 2.5-2c0-1.556.667-2 3-2s3 .444 3 2 .667 2 3 2 3-.444 3-2c0-1.467.667-2 2.5-2s2.5.533 2.5 2c0 1.556.667 2 3 2s3-.444 3-2 .667-2 3-2 3 .444 3 2 .667 2 3 2 3-.444 3-2c0-1.467.667-2 2.5-2s2.5.533 2.5 2c0 1.556.667 2 3 2s3-.444 3-2 .667-2 3-2 3 .444 3 2 .667 2 3 2 3-.444 3-2c0-1.467.667-2 2.5-2s2.5.533 2.5 2c0 1.556.667 2 3 2s3-.444 3-2 .667-2 3-2 3 .444 3 2c0 1.467.667 2 2.5 2s2.5-.533 2.5-2c0-1.556.667-2 3-2s3 .444 3 2 .667 2 3 2 3-.444 3-2 .667-2 3-2 3 .444 3 2c0 1.467.667 2 2.5 2s2.5-.533 2.5-2c0-1.556.667-2 3-2s3 .444 3 2 .667 2 3 2 3-.444 3-2 .667-2 3-2 3 .444 3 2c0 1.467.667 2 2.5 2s2.5-.533 2.5-2c0-1.556.667-2 3-2s3 .444 3 2 .667 2 3 2 3-.444 3-2c0-1.467.667-2 2.5-2 1.897 0 2.5.522 2.5 2.167 0 1.191.226 1.94.503 1.663s.216-2.602-.136-5.167c-.556-4.055-.947-4.663-3.003-4.663-1.96 0-2.364-.513-2.364-3 0-2.495.402-3 2.385-3 2.145 0 2.455.561 3.082 5.584.384 3.071.951 5.331 1.261 5.022s-.017-3.948-.724-8.084c-1.176-6.873-1.49-7.522-3.645-7.522-1.954 0-2.359-.515-2.359-3 0-2.49.403-3 2.371-3 2.098 0 2.45.591 3.05 5.117.373 2.814.917 4.878 1.209 4.587.291-.292-.044-3.944-.745-8.117-1.157-6.886-1.488-7.587-3.58-7.587-1.894 0-2.305-.534-2.305-3 0-2.495.402-3 2.385-3 2.145 0 2.455.561 3.082 5.584.384 3.071.951 5.331 1.261 5.022s-.017-3.948-.724-8.084c-1.176-6.873-1.49-7.522-3.645-7.522-1.954 0-2.359-.515-2.359-3 0-2.49.403-3 2.371-3 2.098 0 2.45.591 3.05 5.117.373 2.814.917 4.878 1.209 4.587.291-.292-.044-3.944-.745-8.117-1.157-6.886-1.488-7.587-3.58-7.587-1.894 0-2.305-.534-2.305-3 0-2.495.402-3 2.385-3 2.145 0 2.455.561 3.082 5.584.384 3.071.951 5.331 1.261 5.022s-.017-3.948-.724-8.084c-1.176-6.873-1.49-7.522-3.645-7.522-1.954 0-2.359-.515-2.359-3 0-2.49.403-3 2.371-3 2.098 0 2.45.591 3.05 5.117.373 2.814.917 4.878 1.209 4.587.291-.292-.044-3.944-.745-8.117-1.157-6.886-1.488-7.587-3.58-7.587-1.792 0-2.305-.556-2.305-2.5 0-1.974.506-2.5 2.406-2.5 2.133 0 2.485.575 3.103 5.064.383 2.785.937 4.823 1.232 4.528s-.066-3.923-.801-8.064c-1.209-6.802-1.56-7.528-3.639-7.528-1.89 0-2.301-.536-2.301-3 0-2.495.402-3 2.385-3 2.145 0 2.455.561 3.082 5.584.384 3.071.942 5.34 1.241 5.041s-.044-4.161-.763-8.584c-1.196-7.369-1.499-8.041-3.625-8.041-1.808 0-2.32-.552-2.32-2.5 0-1.974.506-2.5 2.406-2.5 2.133 0 2.485.575 3.103 5.064.383 2.785.937 4.823 1.232 4.528s-.066-3.923-.801-8.064c-1.209-6.802-1.56-7.528-3.639-7.528-1.89 0-2.301-.536-2.301-3 0-2.495.402-3 2.385-3 2.145 0 2.455.561 3.082 5.584.384 3.071.942 5.34 1.241 5.041s-.044-4.161-.763-8.584c-1.196-7.369-1.499-8.041-3.625-8.041-1.808 0-2.32-.552-2.32-2.5 0-1.974.506-2.5 2.406-2.5 2.133 0 2.485.575 3.103 5.064.383 2.785.937 4.823 1.232 4.528s-.066-3.923-.801-8.064c-1.209-6.802-1.56-7.528-3.639-7.528-1.89 0-2.301-.536-2.301-3 0-2.495.402-3 2.385-3 2.145 0 2.455.561 3.082 5.584.384 3.071.951 5.331 1.261 5.022s-.017-3.948-.724-8.084c-1.176-6.873-1.49-7.522-3.645-7.522-1.954 0-2.359-.515-2.359-3 0-2.49.403-3 2.371-3 2.098 0 2.45.591 3.05 5.117.373 2.814.917 4.878 1.209 4.587.291-.292-.044-3.944-.745-8.117-1.157-6.886-1.488-7.587-3.58-7.587-1.894 0-2.305-.534-2.305-3 0-2.495.402-3 2.385-3 2.145 0 2.455.561 3.082 5.584.384 3.071.951 5.331 1.261 5.022s-.017-3.948-.724-8.084c-1.176-6.873-1.49-7.522-3.645-7.522-1.954 0-2.359-.515-2.359-3 0-2.49.403-3 2.371-3 2.098 0 2.45.591 3.05 5.117.373 2.814.917 4.878 1.209 4.587.291-.292-.044-3.944-.745-8.117-1.157-6.886-1.488-7.587-3.58-7.587-1.894 0-2.305-.534-2.305-3 0-2.495.402-3 2.385-3 2.145 0 2.455.561 3.082 5.584.384 3.071.951 5.331 1.261 5.022s-.017-3.948-.724-8.084c-1.176-6.873-1.49-7.522-3.645-7.522-1.954 0-2.359-.515-2.359-3 0-2.49.403-3 2.371-3 2.098 0 2.45.591 3.05 5.117.373 2.814.917 4.878 1.209 4.587.291-.292-.044-3.944-.745-8.117-1.157-6.886-1.488-7.587-3.58-7.587-1.792 0-2.305-.556-2.305-2.5 0-1.974.506-2.5 2.406-2.5 2.133 0 2.485.575 3.103 5.064.383 2.785.937 4.823 1.232 4.528s-.066-3.923-.801-8.064c-1.209-6.802-1.56-7.528-3.639-7.528-1.89 0-2.301-.536-2.301-3 0-2.495.402-3 2.385-3 2.145 0 2.455.561 3.082 5.584.384 3.071.942 5.34 1.241 5.041s-.044-4.161-.763-8.584C254.749 16.672 254.446 16 252.32 16c-1.808 0-2.32-.552-2.32-2.5 0-2.111-.467-2.5-3-2.5s-3 .389-3 2.5-.467 2.5-3 2.5-3-.389-3-2.5c0-2-.5-2.5-2.5-2.5s-2.5.5-2.5 2.5c0 2.111-.467 2.5-3 2.5s-3-.389-3-2.5-.467-2.5-3-2.5-3 .389-3 2.5-.467 2.5-3 2.5-3-.389-3-2.5c0-2-.5-2.5-2.5-2.5s-2.5.5-2.5 2.5c0 2.111-.467 2.5-3 2.5s-3-.389-3-2.5-.467-2.5-3-2.5-3 .389-3 2.5-.467 2.5-3 2.5-3-.389-3-2.5c0-2-.5-2.5-2.5-2.5s-2.5.5-2.5 2.5c0 2.111-.467 2.5-3 2.5s-3-.389-3-2.5-.467-2.5-3-2.5-3 .389-3 2.5c0 2-.5 2.5-2.5 2.5s-2.5-.5-2.5-2.5c0-2.111-.467-2.5-3-2.5s-3 .389-3 2.5-.467 2.5-3 2.5-3-.389-3-2.5-.467-2.5-3-2.5-3 .389-3 2.5c0 2-.5 2.5-2.5 2.5s-2.5-.5-2.5-2.5c0-2.111-.467-2.5-3-2.5s-3 .389-3 2.5-.467 2.5-3 2.5-3-.389-3-2.5-.467-2.5-3-2.5-3 .389-3 2.5c0 2-.5 2.5-2.5 2.5s-2.5-.5-2.5-2.5c0-2.111-.467-2.5-3-2.5s-3 .389-3 2.5-.467 2.5-3 2.5-3-.389-3-2.5c0-2-.5-2.5-2.5-2.5s-2.5.5-2.5 2.5c0 2.111-.467 2.5-3 2.5s-3-.389-3-2.5-.467-2.5-3-2.5-3 .389-3 2.5-.467 2.5-3 2.5-3-.389-3-2.5c0-2-.5-2.5-2.5-2.5s-2.5.5-2.5 2.5c0 2.111-.467 2.5-3 2.5s-3-.389-3-2.5-.467-2.5-3-2.5-3 .389-3 2.5-.467 2.5-3 2.5-3-.389-3-2.5c0-2-.5-2.5-2.5-2.5s-2.5.5-2.5 2.5c0 2.111-.467 2.5-3 2.5s-3-.389-3-2.5-.467-2.5-3-2.5-3 .389-3 2.5c0 2-.5 2.5-2.5 2.5s-2.5-.5-2.5-2.5c0-2.111-.467-2.5-3-2.5s-3 .389-3 2.5-.467 2.5-3 2.5-3-.389-3-2.5-.467-2.5-3-2.5-3 .389-3 2.5c0 2-.5 2.5-2.5 2.5s-2.5-.5-2.5-2.5c0-2.111-.467-2.5-3-2.5s-3 .389-3 2.5-.467 2.5-3 2.5-3-.389-3-2.5S8.533 11 6 11s-3 .389-3 2.5m252.195 0c.02 1.65.244 2.204.498 1.231s.237-2.323-.037-3-.481.119-.461 1.769M3 19c0 2.667.333 3 3 3s3 .333 3 3-.333 3-3 3-3 .333-3 3 .333 3 3 3c2.533 0 3 .389 3 2.5S8.533 39 6 39c-2.667 0-3 .333-3 3s.333 3 3 3 3 .333 3 3-.333 3-3 3c-2.533 0-3 .389-3 2.5S3.467 56 6 56c2.667 0 3 .333 3 3s-.333 3-3 3-3 .333-3 3 .333 3 3 3 3 .333 3 3-.333 3-3 3c-2.533 0-3 .389-3 2.5S3.467 79 6 79c2.667 0 3 .333 3 3s-.333 3-3 3-3 .333-3 3 .333 3 3 3 3 .333 3 3-.333 3-3 3c-2.533 0-3 .389-3 2.5s.467 2.5 3 2.5c2.667 0 3 .333 3 3s-.333 3-3 3-3 .333-3 3 .333 3 3 3c2.533 0 3 .389 3 2.5s-.467 2.5-3 2.5c-2.667 0-3 .333-3 3s.333 3 3 3 3 .333 3 3-.333 3-3 3-3 .333-3 3 .333 3 3 3c2.533 0 3 .389 3 2.5s-.467 2.5-3 2.5c-2.667 0-3 .333-3 3s.333 3 3 3 3 .333 3 3-.333 3-3 3-3 .333-3 3 .333 3 3 3c2.533 0 3 .389 3 2.5s-.467 2.5-3 2.5c-2.667 0-3 .333-3 3s.333 3 3 3 3 .333 3 3-.333 3-3 3c-2.533 0-3 .389-3 2.5s.467 2.5 3 2.5c2.667 0 3 .333 3 3s-.333 3-3 3-3 .333-3 3 .333 3 3 3 3 .333 3 3-.333 3-3 3c-2.533 0-3 .389-3 2.5s.467 2.5 3 2.5c2.667 0 3 .333 3 3s-.333 3-3 3-3 .333-3 3 .333 3 3 3 3 .333 3 3-.333 3-3 3c-2.533 0-3 .389-3 2.5s.467 2.5 3 2.5c2.667 0 3 .333 3 3s-.333 3-3 3-3 .333-3 3 .333 3 3 3 3-.333 3-3 .333-3 3-3 3 .333 3 3 .333 3 3 3 3-.333 3-3c0-2.533.389-3 2.5-3s2.5.467 2.5 3c0 2.667.333 3 3 3s3-.333 3-3 .333-3 3-3 3 .333 3 3 .333 3 3 3 3-.333 3-3c0-2.533.389-3 2.5-3s2.5.467 2.5 3c0 2.667.333 3 3 3s3-.333 3-3 .333-3 3-3 3 .333 3 3c0 2.533.389 3 2.5 3s2.5-.467 2.5-3c0-2.667.333-3 3-3s3 .333 3 3 .333 3 3 3 3-.333 3-3 .333-3 3-3 3 .333 3 3c0 2.533.389 3 2.5 3s2.5-.467 2.5-3c0-2.667.333-3 3-3s3 .333 3 3 .333 3 3 3 3-.333 3-3 .333-3 3-3 3 .333 3 3c0 2.533.389 3 2.5 3s2.5-.467 2.5-3c0-2.667.333-3 3-3s3 .333 3 3 .333 3 3 3 3-.333 3-3c0-2.533.389-3 2.5-3s2.5.467 2.5 3c0 2.667.333 3 3 3s3-.333 3-3 .333-3 3-3 3 .333 3 3 .333 3 3 3 3-.333 3-3c0-2.533.389-3 2.5-3s2.5.467 2.5 3c0 2.667.333 3 3 3s3-.333 3-3 .333-3 3-3 3 .333 3 3 .333 3 3 3 3-.333 3-3c0-2.533.389-3 2.5-3s2.5.467 2.5 3c0 2.667.333 3 3 3s3-.333 3-3 .333-3 3-3 3 .333 3 3c0 2.533.389 3 2.5 3s2.5-.467 2.5-3c0-2.667.333-3 3-3s3 .333 3 3 .333 3 3 3 3-.333 3-3 .333-3 3-3 3 .333 3 3c0 2.533.389 3 2.5 3s2.5-.467 2.5-3c0-2.667.333-3 3-3s3 .333 3 3 .333 3 3 3 3-.333 3-3 .333-3 3-3 3 .333 3 3c0 2.533.389 3 2.5 3s2.5-.467 2.5-3c0-2.667.333-3 3-3s3 .333 3 3 .333 3 3 3 3-.333 3-3-.333-3-3-3-3-.333-3-3 .333-3 3-3c2.533 0 3-.389 3-2.5s-.467-2.5-3-2.5c-2.667 0-3-.333-3-3s.333-3 3-3 3-.333 3-3-.333-3-3-3-3-.333-3-3 .333-3 3-3c2.533 0 3-.389 3-2.5s-.467-2.5-3-2.5c-2.667 0-3-.333-3-3s.333-3 3-3 3-.333 3-3-.333-3-3-3-3-.333-3-3 .333-3 3-3c2.533 0 3-.389 3-2.5s-.467-2.5-3-2.5c-2.667 0-3-.333-3-3s.333-3 3-3 3-.333 3-3-.333-3-3-3c-2.533 0-3-.389-3-2.5s.467-2.5 3-2.5c2.667 0 3-.333 3-3s-.333-3-3-3-3-.333-3-3 .333-3 3-3 3-.333 3-3-.333-3-3-3c-2.533 0-3-.389-3-2.5s.467-2.5 3-2.5c2.667 0 3-.333 3-3s-.333-3-3-3-3-.333-3-3 .333-3 3-3 3-.333 3-3-.333-3-3-3c-2.533 0-3-.389-3-2.5s.467-2.5 3-2.5c2.667 0 3-.333 3-3s-.333-3-3-3-3-.333-3-3 .333-3 3-3c2.533 0 3-.389 3-2.5s-.467-2.5-3-2.5c-2.667 0-3-.333-3-3s.333-3 3-3 3-.333 3-3-.333-3-3-3-3-.333-3-3 .333-3 3-3c2.533 0 3-.389 3-2.5s-.467-2.5-3-2.5c-2.667 0-3-.333-3-3s.333-3 3-3 3-.333 3-3-.333-3-3-3-3-.333-3-3 .333-3 3-3c2.533 0 3-.389 3-2.5s-.467-2.5-3-2.5c-2.667 0-3-.333-3-3s.333-3 3-3 3-.333 3-3-.333-3-3-3c-2.533 0-3-.389-3-2.5s.467-2.5 3-2.5c2.667 0 3-.333 3-3s-.333-3-3-3-3-.333-3-3 .333-3 3-3 3-.333 3-3-.333-3-3-3-3 .333-3 3-.333 3-3 3-3-.333-3-3c0-2.533-.389-3-2.5-3s-2.5.467-2.5 3c0 2.667-.333 3-3 3s-3-.333-3-3-.333-3-3-3-3 .333-3 3-.333 3-3 3-3-.333-3-3c0-2.533-.389-3-2.5-3s-2.5.467-2.5 3c0 2.667-.333 3-3 3s-3-.333-3-3-.333-3-3-3-3 .333-3 3-.333 3-3 3-3-.333-3-3c0-2.533-.389-3-2.5-3s-2.5.467-2.5 3c0 2.667-.333 3-3 3s-3-.333-3-3-.333-3-3-3-3 .333-3 3c0 2.533-.389 3-2.5 3s-2.5-.467-2.5-3c0-2.667-.333-3-3-3s-3 .333-3 3-.333 3-3 3-3-.333-3-3-.333-3-3-3-3 .333-3 3c0 2.533-.389 3-2.5 3s-2.5-.467-2.5-3c0-2.667-.333-3-3-3s-3 .333-3 3-.333 3-3 3-3-.333-3-3-.333-3-3-3-3 .333-3 3c0 2.533-.389 3-2.5 3s-2.5-.467-2.5-3c0-2.667-.333-3-3-3s-3 .333-3 3-.333 3-3 3-3-.333-3-3c0-2.533-.389-3-2.5-3s-2.5.467-2.5 3c0 2.667-.333 3-3 3s-3-.333-3-3-.333-3-3-3-3 .333-3 3-.333 3-3 3-3-.333-3-3c0-2.533-.389-3-2.5-3s-2.5.467-2.5 3c0 2.667-.333 3-3 3s-3-.333-3-3-.333-3-3-3-3 .333-3 3-.333 3-3 3-3-.333-3-3c0-2.533-.389-3-2.5-3s-2.5.467-2.5 3c0 2.667-.333 3-3 3s-3-.333-3-3-.333-3-3-3-3 .333-3 3c0 2.533-.389 3-2.5 3s-2.5-.467-2.5-3c0-2.667-.333-3-3-3s-3 .333-3 3-.333 3-3 3-3-.333-3-3-.333-3-3-3-3 .333-3 3c0 2.533-.389 3-2.5 3s-2.5-.467-2.5-3c0-2.667-.333-3-3-3s-3 .333-3 3-.333 3-3 3-3-.333-3-3-.333-3-3-3-3 .333-3 3m12 6c0 2.667-.333 3-3 3s-3 .333-3 3 .333 3 3 3c2.533 0 3 .389 3 2.5s-.467 2.5-3 2.5c-2.667 0-3 .333-3 3s.333 3 3 3 3 .333 3 3-.333 3-3 3c-2.533 0-3 .389-3 2.5s.467 2.5 3 2.5c2.667 0 3 .333 3 3s-.333 3-3 3-3 .333-3 3 .333 3 3 3 3 .333 3 3-.333 3-3 3c-2.533 0-3 .389-3 2.5s.467 2.5 3 2.5c2.667 0 3 .333 3 3s-.333 3-3 3-3 .333-3 3 .333 3 3 3 3 .333 3 3-.333 3-3 3c-2.533 0-3 .389-3 2.5s.467 2.5 3 2.5c2.667 0 3 .333 3 3s-.333 3-3 3-3 .333-3 3 .333 3 3 3 3-.333 3-3c0-2.333.444-3 2-3s2-.667 2-3-.444-3-2-3c-1.467 0-2-.667-2-2.5 0-2.231.935-2.984 3.25-2.618.413.065.75-1.232.75-2.882 0-2.333-.444-3-2-3s-2-.667-2-3 .444-3 2-3 2-.667 2-3-.444-3-2-3c-1.467 0-2-.667-2-2.5s.533-2.5 2-2.5c1.556 0 2-.667 2-3s-.444-3-2-3-2-.667-2-3 .444-3 2-3 2-.667 2-3c0-1.65-.337-2.947-.75-2.882-2.315.366-3.25-.387-3.25-2.618 0-1.833.533-2.5 2-2.5 1.305 0 2-.667 2-1.918 0-1.055.251-2.573.558-3.373.424-1.105-.056-1.336-2-.965-2.301.44-2.558.177-2.558-2.627 0-2.823.294-3.117 3.117-3.117 2.733 0 3.047.277 2.549 2.25-.554 2.201-.534 2.206.918.262.908-1.216 1.083-2.123.451-2.334-.569-.189-1.035-1.432-1.035-2.761 0-1.889.528-2.417 2.417-2.417 1.329 0 2.576.478 2.77 1.062.25.75 1.177.75 3.149 0 3.926-1.492 8.263-1.321 11.714.464 2.644 1.367 2.95 1.367 2.95 0 0-.961.926-1.526 2.5-1.526 2 0 2.5.5 2.5 2.5 0 1.639-.559 2.5-1.622 2.5-1.396 0-1.431.231-.25 1.656 1.277 1.541 1.394 1.541 1.695 0 .213-1.09 1.323-1.656 3.25-1.656 2.586 0 2.927.35 2.927 3 0 2.566-.377 3-2.607 3-1.966 0-2.458.389-2 1.582.334.87.607 2.22.607 3S51.9 51 53 51c1.467 0 2 .667 2 2.5 0 2.231-.935 2.984-3.25 2.618C51.337 56.053 51 57.35 51 59c0 2.333.444 3 2 3s2 .667 2 3-.444 3-2 3-2 .667-2 3 .444 3 2 3c1.467 0 2 .667 2 2.5s-.533 2.5-2 2.5c-1.556 0-2 .667-2 3s.444 3 2 3 2 .667 2 3-.444 3-2 3-2 .667-2 3c0 1.65.337 2.947.75 2.882 2.315-.366 3.25.387 3.25 2.618 0 1.833-.533 2.5-2 2.5-1.556 0-2 .667-2 3s.444 3 2 3 2 .667 2 3c0 2.667.333 3 3 3 2.533 0 3 .389 3 2.5s-.467 2.5-3 2.5c-2.667 0-3 .333-3 3 0 2.333-.444 3-2 3s-2 .667-2 3 .444 3 2 3 2 .667 2 3c0 2.667.333 3 3 3 2.533 0 3 .389 3 2.5s-.467 2.5-3 2.5c-2.667 0-3 .333-3 3 0 2.333-.444 3-2 3s-2 .667-2 3 .444 3 2 3 2 .667 2 3c0 2.667.333 3 3 3 2.533 0 3 .389 3 2.5s-.467 2.5-3 2.5c-2.667 0-3 .333-3 3 0 2.333-.444 3-2 3s-2 .667-2 3 .444 3 2 3c1.467 0 2 .667 2 2.5 0 2.231-.935 2.984-3.25 2.618-.413-.065-.75 1.232-.75 2.882 0 2.333.444 3 2 3s2 .667 2 3-.444 3-2 3-2 .667-2 3 .444 3 2 3c1.467 0 2 .667 2 2.5 0 1.78-.541 2.5-1.879 2.5-1.145 0-2.364 1.173-3.124 3.007-1.728 4.171-5.905 8.474-9.634 9.923-4.123 1.602-3.607 5.07.754 5.07 2.409 0 2.883.411 2.883 2.5 0 2.111-.467 2.5-3 2.5s-3-.389-3-2.5-.467-2.5-3-2.5-3 .389-3 2.5-.467 2.5-3 2.5-3-.389-3-2.5c0-2.089.474-2.5 2.883-2.5 2.011 0 3.037-.586 3.39-1.936.394-1.507-.329-2.269-3.268-3.445-3.981-1.593-7.038-4.813-9.194-9.684-.726-1.639-2.074-2.935-3.055-2.935-1.206 0-1.756-.783-1.756-2.5 0-1.833.533-2.5 2-2.5 1.556 0 2-.667 2-3s-.444-3-2-3-2-.667-2-3 .444-3 2-3 2-.667 2-3c0-1.65-.338-2.947-.75-2.882-2.315.366-3.25-.387-3.25-2.618 0-1.833.533-2.5 2-2.5 1.556 0 2-.667 2-3s-.444-3-2-3-2-.667-2-3c0-2.667-.333-3-3-3s-3 .333-3 3 .333 3 3 3 3 .333 3 3-.333 3-3 3c-2.533 0-3 .389-3 2.5s.467 2.5 3 2.5c2.667 0 3 .333 3 3s-.333 3-3 3-3 .333-3 3 .333 3 3 3 3 .333 3 3-.333 3-3 3c-2.533 0-3 .389-3 2.5s.467 2.5 3 2.5c2.667 0 3 .333 3 3s-.333 3-3 3-3 .333-3 3 .333 3 3 3 3 .333 3 3-.333 3-3 3c-2.533 0-3 .389-3 2.5s.467 2.5 3 2.5c2.667 0 3 .333 3 3s.333 3 3 3 3-.333 3-3c0-2.533.389-3 2.5-3s2.5.467 2.5 3c0 2.667.333 3 3 3s3-.333 3-3 .333-3 3-3 3 .333 3 3 .333 3 3 3 3-.333 3-3c0-2.533.389-3 2.5-3s2.5.467 2.5 3c0 2.667.333 3 3 3s3-.333 3-3 .333-3 3-3 3 .333 3 3c0 2.533.389 3 2.5 3s2.5-.467 2.5-3c0-2.667.333-3 3-3s3 .333 3 3 .333 3 3 3 3-.333 3-3 .333-3 3-3 3 .333 3 3c0 2.533.389 3 2.5 3s2.5-.467 2.5-3c0-2.667.333-3 3-3s3 .333 3 3 .333 3 3 3 3-.333 3-3 .333-3 3-3 3 .333 3 3c0 2.533.389 3 2.5 3s2.5-.467 2.5-3c0-2.667.333-3 3-3s3 .333 3 3 .333 3 3 3 3-.333 3-3c0-2.533.389-3 2.5-3s2.5.467 2.5 3c0 2.667.333 3 3 3s3-.333 3-3 .333-3 3-3 3 .333 3 3 .333 3 3 3 3-.333 3-3c0-2.533.389-3 2.5-3s2.5.467 2.5 3c0 2.667.333 3 3 3s3-.333 3-3 .333-3 3-3 3 .333 3 3 .333 3 3 3 3-.333 3-3c0-2.533.389-3 2.5-3s2.5.467 2.5 3c0 2.667.333 3 3 3s3-.333 3-3 .333-3 3-3 3 .333 3 3c0 2.533.389 3 2.5 3s2.5-.467 2.5-3c0-2.667.333-3 3-3s3 .333 3 3 .333 3 3 3 3-.333 3-3 .333-3 3-3 3 .333 3 3c0 2.533.389 3 2.5 3s2.5-.467 2.5-3c0-2.667.333-3 3-3s3 .333 3 3 .333 3 3 3 3-.333 3-3 .333-3 3-3 3 .333 3 3c0 2.533.389 3 2.5 3s2.5-.467 2.5-3c0-2.667.333-3 3-3 2.533 0 3-.389 3-2.5s-.467-2.5-3-2.5c-2.667 0-3-.333-3-3s.333-3 3-3 3-.333 3-3-.333-3-3-3-3-.333-3-3 .333-3 3-3c2.533 0 3-.389 3-2.5s-.467-2.5-3-2.5c-2.642 0-3-.345-3-2.893 0-1.649-.645-3.141-1.5-3.469-1.156-.443-1.5.221-1.5 2.893 0 2.417.455 3.469 1.5 3.469.933 0 1.5.944 1.5 2.5s-.567 2.5-1.5 2.5c-.825 0-1.534.563-1.577 1.25s-.227 2.037-.411 3c-.225 1.173.295 1.75 1.576 1.75 1.458 0 1.912.713 1.912 3 0 2.533-.389 3-2.5 3-2.35 0-2.945-.852-2.585-3.704.083-.662-.97-.212-2.34 1l-2.491 2.204 2.458.316c1.98.255 2.458.887 2.458 3.25 0 2.593-.348 2.934-3 2.934-2.647 0-3-.343-3-2.913 0-2.822-.094-2.878-3-1.781-4.099 1.547-4.099 4.694 0 4.694 2.533 0 3 .389 3 2.5s-.467 2.5-3 2.5-3-.389-3-2.5-.467-2.5-3-2.5-3 .389-3 2.5c0 2-.5 2.5-2.5 2.5s-2.5-.5-2.5-2.5c0-1.967.508-2.5 2.383-2.5 1.736 0 2.511-.666 2.853-2.453.383-2.004-.009-2.558-2.143-3.027-1.437-.315-3.508-1.91-4.603-3.544s-2.552-2.972-3.24-2.973c-.99-.002-1.249-17.219-1.246-82.753.003-80.73.052-82.829 1.985-86 1.976-3.241 1.976-3.25-.004-3.25-1.451 0-1.985-.673-1.985-2.5 0-2.132.459-2.5 3.117-2.5 2.65 0 3.036.307 2.58 2.051l-.537 2.052 3.477-2.052c3.759-2.217 9.332-2.673 12.429-1.016 1.333.714 1.934.714 1.934 0 0-.569 1.409-1.035 3.131-1.035 3.047 0 3.116.1 2.591 3.75-.296 2.063-.317 3.188-.047 2.5s1.579-1.25 2.908-1.25c2.019 0 2.417.494 2.417 3q0 3-1.5 3t-1.5 3c0 2.057.493 3 1.566 3 1.119 0 1.476.786 1.25 2.75-.178 1.547-.863 2.641-1.566 2.5-.808-.162-1.25.977-1.25 3.219 0 2.672.344 3.336 1.5 2.893.855-.328 1.5-1.82 1.5-3.469 0-2.548.358-2.893 3-2.893 2.533 0 3-.389 3-2.5s-.467-2.5-3-2.5c-2.667 0-3-.333-3-3s.333-3 3-3 3-.333 3-3-.333-3-3-3c-2.533 0-3-.389-3-2.5s.467-2.5 3-2.5c2.667 0 3-.333 3-3s-.333-3-3-3-3-.333-3-3c0-2.533-.389-3-2.5-3s-2.5.467-2.5 3c0 2.667-.333 3-3 3s-3-.333-3-3-.333-3-3-3-3 .333-3 3-.333 3-3 3-3-.333-3-3c0-2.533-.389-3-2.5-3s-2.5.467-2.5 3c0 2.667-.333 3-3 3s-3-.333-3-3-.333-3-3-3-3 .333-3 3-.333 3-3 3-3-.333-3-3c0-2.533-.389-3-2.5-3s-2.5.467-2.5 3c0 2.667-.333 3-3 3s-3-.333-3-3-.333-3-3-3-3 .333-3 3c0 2.533-.389 3-2.5 3s-2.5-.467-2.5-3c0-2.667-.333-3-3-3s-3 .333-3 3-.333 3-3 3-3-.333-3-3-.333-3-3-3-3 .333-3 3c0 2.533-.389 3-2.5 3s-2.5-.467-2.5-3c0-2.667-.333-3-3-3s-3 .333-3 3-.333 3-3 3-3-.333-3-3-.333-3-3-3-3 .333-3 3c0 2.533-.389 3-2.5 3s-2.5-.467-2.5-3c0-2.667-.333-3-3-3s-3 .333-3 3-.333 3-3 3-3-.333-3-3c0-2.533-.389-3-2.5-3s-2.5.467-2.5 3c0 2.667-.333 3-3 3s-3-.333-3-3-.333-3-3-3-3 .333-3 3-.333 3-3 3-3-.333-3-3c0-2.533-.389-3-2.5-3s-2.5.467-2.5 3c0 2.667-.333 3-3 3s-3-.333-3-3-.333-3-3-3-3 .333-3 3-.333 3-3 3-3-.333-3-3c0-2.533-.389-3-2.5-3s-2.5.467-2.5 3c0 2.667-.333 3-3 3s-3-.333-3-3-.333-3-3-3-3 .333-3 3c0 2.533-.389 3-2.5 3s-2.5-.467-2.5-3c0-2.667-.333-3-3-3s-3 .333-3 3-.333 3-3 3-3-.333-3-3-.333-3-3-3-3 .333-3 3c0 2.533-.389 3-2.5 3s-2.5-.467-2.5-3c0-2.667-.333-3-3-3s-3 .333-3 3M.232 31c0 1.925.206 2.712.457 1.75.252-.962.252-2.538 0-3.5-.251-.962-.457-.175-.457 1.75M15 31c0 2.667.333 3 3 3s3-.333 3-3-.333-3-3-3-3 .333-3 3m11 .066c0 2.756.279 3.035 2.75 2.75 2.16-.248 2.818-.906 3.066-3.066.285-2.471.006-2.75-2.75-2.75S26 28.311 26 31.066m12.184-.316c.248 2.16.906 2.818 3.066 3.066 2.471.285 2.75.006 2.75-2.75S43.689 28 40.934 28s-3.035.279-2.75 2.75M49 31c0 2.667.333 3 3 3 2.533 0 3 .389 3 2.5s.467 2.5 3 2.5c2.667 0 3 .333 3 3s-.333 3-3 3-3 .333-3 3 .333 3 3 3c2.533 0 3 .389 3 2.5s-.467 2.5-3 2.5c-2.667 0-3 .333-3 3s.333 3 3 3 3 .333 3 3-.333 3-3 3-3 .333-3 3 .333 3 3 3c2.533 0 3 .389 3 2.5s-.467 2.5-3 2.5c-2.667 0-3 .333-3 3s.333 3 3 3 3 .333 3 3-.333 3-3 3-3 .333-3 3 .333 3 3 3c2.533 0 3 .389 3 2.5s-.467 2.5-3 2.5c-2.667 0-3 .333-3 3s.333 3 3 3 3 .333 3 3c0 2.533.389 3 2.5 3 2 0 2.5.5 2.5 2.5s-.5 2.5-2.5 2.5c-2.111 0-2.5.467-2.5 3 0 2.667-.333 3-3 3s-3 .333-3 3 .333 3 3 3 3 .333 3 3c0 2.533.389 3 2.5 3 2 0 2.5.5 2.5 2.5s-.5 2.5-2.5 2.5c-2.111 0-2.5.467-2.5 3 0 2.667-.333 3-3 3s-3 .333-3 3 .333 3 3 3 3 .333 3 3c0 2.533.389 3 2.5 3 2 0 2.5.5 2.5 2.5s-.5 2.5-2.5 2.5c-2.111 0-2.5.467-2.5 3 0 2.667-.333 3-3 3s-3 .333-3 3 .333 3 3 3c2.533 0 3 .389 3 2.5s-.467 2.5-3 2.5c-2.667 0-3 .333-3 3s.333 3 3 3 3 .333 3 3-.333 3-3 3-3 .333-3 3 .333 3 3 3c2.533 0 3 .389 3 2.5s-.467 2.5-3 2.5c-2.667 0-3 .333-3 3s-.333 3-3 3-3 .333-3 3c0 2.476-.407 3-2.333 3-3.038 0-3.479.535-2.907 3.524.346 1.81 1.114 2.476 2.857 2.476 1.875 0 2.383.533 2.383 2.5 0 2.111.467 2.5 3 2.5s3-.389 3-2.5.467-2.5 3-2.5 3 .389 3 2.5c0 2 .5 2.5 2.5 2.5s2.5-.5 2.5-2.5c0-2.111.467-2.5 3-2.5s3 .389 3 2.5.467 2.5 3 2.5 3-.389 3-2.5.467-2.5 3-2.5 3 .389 3 2.5c0 2 .5 2.5 2.5 2.5s2.5-.5 2.5-2.5c0-2.111.467-2.5 3-2.5s3 .389 3 2.5.467 2.5 3 2.5 3-.389 3-2.5.467-2.5 3-2.5 3 .389 3 2.5c0 2 .5 2.5 2.5 2.5s2.5-.5 2.5-2.5c0-2.111.467-2.5 3-2.5s3 .389 3 2.5.467 2.5 3 2.5 3-.389 3-2.5c0-2 .5-2.5 2.5-2.5s2.5.5 2.5 2.5c0 2.111.467 2.5 3 2.5s3-.389 3-2.5.467-2.5 3-2.5 3 .389 3 2.5.467 2.5 3 2.5 3-.389 3-2.5c0-2 .5-2.5 2.5-2.5s2.5.5 2.5 2.5c0 2.111.467 2.5 3 2.5s3-.389 3-2.5.467-2.5 3-2.5 3 .389 3 2.5.467 2.5 3 2.5 3-.389 3-2.5c0-2 .5-2.5 2.5-2.5s2.5.5 2.5 2.5c0 2.111.467 2.5 3 2.5s3-.389 3-2.5.467-2.5 3-2.5 3 .389 3 2.5c0 2 .5 2.5 2.5 2.5s2.5-.5 2.5-2.5c0-2.111.467-2.5 3-2.5s3 .389 3 2.5.467 2.5 3 2.5 3-.389 3-2.5.467-2.5 3-2.5c2.667 0 3-.333 3-3s-.333-3-3-3-3-.333-3-3-.333-3-3-3c-2.692 0-3-.32-3-3.117 0-2.785.266-3.065 2.5-2.638 2.248.43 2.5.153 2.5-2.745s-.252-3.175-2.5-2.745c-2.234.427-2.5.147-2.5-2.638 0-2.658.368-3.117 2.5-3.117 2.111 0 2.5-.467 2.5-3s-.389-3-2.5-3c-2.132 0-2.5-.459-2.5-3.117 0-2.785.266-3.065 2.5-2.638 2.196.419 2.5.129 2.5-2.384 0-2.385-.416-2.861-2.5-2.861-2.111 0-2.5-.467-2.5-3s.389-3 2.5-3 2.5-.467 2.5-3-.389-3-2.5-3c-2 0-2.5-.5-2.5-2.5s.5-2.5 2.5-2.5c2.111 0 2.5-.467 2.5-3s-.389-3-2.5-3-2.5-.467-2.5-3 .389-3 2.5-3 2.5-.467 2.5-3-.389-3-2.5-3c-2 0-2.5-.5-2.5-2.5s.5-2.5 2.5-2.5c2.111 0 2.5-.467 2.5-3s-.389-3-2.5-3-2.5-.467-2.5-3 .389-3 2.5-3 2.5-.467 2.5-3-.389-3-2.5-3c-2 0-2.5-.5-2.5-2.5s.5-2.5 2.5-2.5c2.111 0 2.5-.467 2.5-3s-.389-3-2.5-3-2.5-.467-2.5-3 .389-3 2.5-3c2.084 0 2.5-.476 2.5-2.861 0-2.513-.304-2.803-2.5-2.384-2.234.427-2.5.147-2.5-2.638 0-2.658.368-3.117 2.5-3.117 2.111 0 2.5-.467 2.5-3s-.389-3-2.5-3c-2.132 0-2.5-.459-2.5-3.117 0-2.785.266-3.065 2.5-2.638 2.248.43 2.5.153 2.5-2.745s-.252-3.175-2.5-2.745c-2.234.427-2.5.147-2.5-2.638 0-2.658.368-3.117 2.5-3.117 2.111 0 2.5-.467 2.5-3s-.389-3-2.5-3c-2.132 0-2.5-.459-2.5-3.117 0-2.785.266-3.065 2.5-2.638 2.196.419 2.5.129 2.5-2.384 0-2.385-.416-2.861-2.5-2.861-2.111 0-2.5-.467-2.5-3 0-2.667.333-3 3-3s3-.333 3-3-.333-3-3-3c-2.533 0-3-.389-3-2.5s.467-2.5 3-2.5c2.667 0 3-.333 3-3s-.333-3-3-3-3 .333-3 3-.333 3-3 3-3-.333-3-3c0-2.533-.389-3-2.5-3s-2.5.467-2.5 3c0 2.667-.333 3-3 3s-3-.333-3-3-.333-3-3-3-3 .333-3 3c0 2.533-.389 3-2.5 3s-2.5-.467-2.5-3c0-2.667-.333-3-3-3s-3 .333-3 3-.333 3-3 3-3-.333-3-3-.333-3-3-3-3 .333-3 3c0 2.533-.389 3-2.5 3s-2.5-.467-2.5-3c0-2.667-.333-3-3-3s-3 .333-3 3-.333 3-3 3-3-.333-3-3-.333-3-3-3-3 .333-3 3c0 2.533-.389 3-2.5 3s-2.5-.467-2.5-3c0-2.667-.333-3-3-3s-3 .333-3 3-.333 3-3 3-3-.333-3-3c0-2.533-.389-3-2.5-3s-2.5.467-2.5 3c0 2.667-.333 3-3 3s-3-.333-3-3-.333-3-3-3-3 .333-3 3-.333 3-3 3-3-.333-3-3c0-2.533-.389-3-2.5-3s-2.5.467-2.5 3c0 2.667-.333 3-3 3s-3-.333-3-3-.333-3-3-3-3 .333-3 3-.333 3-3 3-3-.333-3-3c0-2.533-.389-3-2.5-3s-2.5.467-2.5 3c0 2.667-.333 3-3 3s-3-.333-3-3-.333-3-3-3-3 .333-3 3m161 0c0 2.533.389 3 2.5 3s2.5-.467 2.5-3-.389-3-2.5-3-2.5.467-2.5 3m11-.5c0 1.375.338 2.506.75 2.514.412.007 1.762.285 3 .616 1.981.531 2.25.231 2.25-2.513 0-2.797-.308-3.117-3-3.117-2.533 0-3 .389-3 2.5m12 .5c0 2.533.389 3 2.5 3s2.5-.467 2.5-3-.389-3-2.5-3-2.5.467-2.5 3M61 36.5c0 2 .5 2.5 2.5 2.5 2.111 0 2.5.467 2.5 3s-.389 3-2.5 3-2.5.467-2.5 3 .389 3 2.5 3c2 0 2.5.5 2.5 2.5s-.5 2.5-2.5 2.5c-2.111 0-2.5.467-2.5 3s.389 3 2.5 3 2.5.467 2.5 3-.389 3-2.5 3-2.5.467-2.5 3 .389 3 2.5 3c2 0 2.5.5 2.5 2.5s-.5 2.5-2.5 2.5c-2.111 0-2.5.467-2.5 3s.389 3 2.5 3 2.5.467 2.5 3-.389 3-2.5 3-2.5.467-2.5 3 .389 3 2.5 3c2 0 2.5.5 2.5 2.5s-.5 2.5-2.5 2.5c-2.111 0-2.5.467-2.5 3s.389 3 2.5 3 2.5.467 2.5 3c0 2.667.333 3 3 3 2.533 0 3 .389 3 2.5s-.467 2.5-3 2.5c-2.667 0-3 .333-3 3 0 2.533-.389 3-2.5 3s-2.5.467-2.5 3 .389 3 2.5 3 2.5.467 2.5 3c0 2.667.333 3 3 3 2.533 0 3 .389 3 2.5s-.467 2.5-3 2.5c-2.667 0-3 .333-3 3 0 2.533-.389 3-2.5 3s-2.5.467-2.5 3 .389 3 2.5 3 2.5.467 2.5 3c0 2.667.333 3 3 3 2.533 0 3 .389 3 2.5s-.467 2.5-3 2.5c-2.667 0-3 .333-3 3 0 2.533-.389 3-2.5 3s-2.5.467-2.5 3 .389 3 2.5 3c2 0 2.5.5 2.5 2.5s-.5 2.5-2.5 2.5c-2.111 0-2.5.467-2.5 3s.389 3 2.5 3 2.5.467 2.5 3-.389 3-2.5 3-2.5.467-2.5 3 .389 3 2.5 3c2 0 2.5.5 2.5 2.5s-.5 2.5-2.5 2.5c-2.111 0-2.5.467-2.5 3 0 2.667-.333 3-3 3s-3 .333-3 3-.333 3-3 3-3 .333-3 3 .333 3 3 3 3-.333 3-3 .333-3 3-3 3 .333 3 3c0 2.533.389 3 2.5 3s2.5-.467 2.5-3c0-2.667.333-3 3-3s3 .333 3 3 .333 3 3 3 3-.333 3-3 .333-3 3-3 3 .333 3 3c0 2.533.389 3 2.5 3s2.5-.467 2.5-3c0-2.667.333-3 3-3s3 .333 3 3 .333 3 3 3 3-.333 3-3 .333-3 3-3 3 .333 3 3c0 2.533.389 3 2.5 3s2.5-.467 2.5-3c0-2.667.333-3 3-3s3 .333 3 3 .333 3 3 3 3-.333 3-3c0-2.533.389-3 2.5-3s2.5.467 2.5 3c0 2.667.333 3 3 3s3-.333 3-3 .333-3 3-3 3 .333 3 3 .333 3 3 3 3-.333 3-3c0-2.533.389-3 2.5-3s2.5.467 2.5 3c0 2.667.333 3 3 3s3-.333 3-3 .333-3 3-3 3 .333 3 3 .333 3 3 3 3-.333 3-3c0-2.533.389-3 2.5-3s2.5.467 2.5 3c0 2.667.333 3 3 3s3-.333 3-3 .333-3 3-3 3 .333 3 3c0 2.533.389 3 2.5 3s2.5-.467 2.5-3c0-2.667.333-3 3-3s3 .333 3 3 .333 3 3 3 3-.333 3-3-.333-3-3-3-3-.333-3-3-.333-3-3-3-3-.333-3-3 .333-3 3-3c2.533 0 3-.389 3-2.5s-.467-2.5-3-2.5c-2.667 0-3-.333-3-3s.333-3 3-3 3-.333 3-3-.333-3-3-3-3-.333-3-3 .333-3 3-3c2.533 0 3-.389 3-2.5s-.467-2.5-3-2.5c-2.667 0-3-.333-3-3s.333-3 3-3 3-.333 3-3-.333-3-3-3c-2.533 0-3-.389-3-2.5s.467-2.5 3-2.5c2.667 0 3-.333 3-3s-.333-3-3-3-3-.333-3-3 .333-3 3-3 3-.333 3-3-.333-3-3-3c-2.533 0-3-.389-3-2.5s.467-2.5 3-2.5c2.667 0 3-.333 3-3s-.333-3-3-3-3-.333-3-3 .333-3 3-3 3-.333 3-3-.333-3-3-3c-2.533 0-3-.389-3-2.5s.467-2.5 3-2.5c2.667 0 3-.333 3-3s-.333-3-3-3-3-.333-3-3 .333-3 3-3c2.533 0 3-.389 3-2.5s-.467-2.5-3-2.5c-2.667 0-3-.333-3-3s.333-3 3-3 3-.333 3-3-.333-3-3-3-3-.333-3-3 .333-3 3-3c2.533 0 3-.389 3-2.5s-.467-2.5-3-2.5c-2.667 0-3-.333-3-3s.333-3 3-3 3-.333 3-3-.333-3-3-3-3-.333-3-3 .333-3 3-3c2.533 0 3-.389 3-2.5s-.467-2.5-3-2.5c-2.667 0-3-.333-3-3s.333-3 3-3 3-.333 3-3-.333-3-3-3c-2.533 0-3-.389-3-2.5 0-2-.5-2.5-2.5-2.5s-2.5.5-2.5 2.5c0 2.111-.467 2.5-3 2.5s-3-.389-3-2.5-.467-2.5-3-2.5-3 .389-3 2.5c0 2-.5 2.5-2.5 2.5s-2.5-.5-2.5-2.5c0-2.111-.467-2.5-3-2.5s-3 .389-3 2.5-.467 2.5-3 2.5-3-.389-3-2.5-.467-2.5-3-2.5-3 .389-3 2.5c0 2-.5 2.5-2.5 2.5s-2.5-.5-2.5-2.5c0-2.111-.467-2.5-3-2.5s-3 .389-3 2.5-.467 2.5-3 2.5-3-.389-3-2.5-.467-2.5-3-2.5-3 .389-3 2.5c0 2-.5 2.5-2.5 2.5s-2.5-.5-2.5-2.5c0-2.111-.467-2.5-3-2.5s-3 .389-3 2.5-.467 2.5-3 2.5-3-.389-3-2.5c0-2-.5-2.5-2.5-2.5s-2.5.5-2.5 2.5c0 2.111-.467 2.5-3 2.5s-3-.389-3-2.5-.467-2.5-3-2.5-3 .389-3 2.5-.467 2.5-3 2.5-3-.389-3-2.5c0-2-.5-2.5-2.5-2.5s-2.5.5-2.5 2.5c0 2.111-.467 2.5-3 2.5s-3-.389-3-2.5-.467-2.5-3-2.5-3 .389-3 2.5-.467 2.5-3 2.5-3-.389-3-2.5c0-2-.5-2.5-2.5-2.5s-2.5.5-2.5 2.5M.232 42c0 1.925.206 2.712.457 1.75.252-.962.252-2.538 0-3.5-.251-.962-.457-.175-.457 1.75M72 42c0 2.667-.333 3-3 3s-3 .333-3 3 .333 3 3 3c2.533 0 3 .389 3 2.5s-.467 2.5-3 2.5c-2.667 0-3 .333-3 3s.333 3 3 3 3 .333 3 3-.333 3-3 3-3 .333-3 3 .333 3 3 3c2.533 0 3 .389 3 2.5s-.467 2.5-3 2.5c-2.667 0-3 .333-3 3s.333 3 3 3 3 .333 3 3-.333 3-3 3-3 .333-3 3 .333 3 3 3c2.533 0 3 .389 3 2.5s-.467 2.5-3 2.5c-2.667 0-3 .333-3 3s.333 3 3 3 3 .333 3 3 .333 3 3 3c2.533 0 3 .389 3 2.5s-.467 2.5-3 2.5c-2.667 0-3 .333-3 3s-.333 3-3 3-3 .333-3 3 .333 3 3 3 3 .333 3 3 .333 3 3 3c2.533 0 3 .389 3 2.5s-.467 2.5-3 2.5c-2.667 0-3 .333-3 3s-.333 3-3 3-3 .333-3 3 .333 3 3 3 3 .333 3 3 .333 3 3 3c2.533 0 3 .389 3 2.5s-.467 2.5-3 2.5c-2.667 0-3 .333-3 3s-.333 3-3 3-3 .333-3 3 .333 3 3 3c2.533 0 3 .389 3 2.5s-.467 2.5-3 2.5c-2.667 0-3 .333-3 3s.333 3 3 3 3 .333 3 3-.333 3-3 3-3 .333-3 3 .333 3 3 3c2.533 0 3 .389 3 2.5s-.467 2.5-3 2.5c-2.667 0-3 .333-3 3 0 2.533-.389 3-2.5 3s-2.5.467-2.5 3 .389 3 2.5 3 2.5-.467 2.5-3c0-2.667.333-3 3-3s3 .333 3 3 .333 3 3 3 3-.333 3-3 .333-3 3-3 3 .333 3 3c0 2.533.389 3 2.5 3s2.5-.467 2.5-3c0-2.667.333-3 3-3s3 .333 3 3 .333 3 3 3 3-.333 3-3 .333-3 3-3 3 .333 3 3c0 2.533.389 3 2.5 3s2.5-.467 2.5-3c0-2.667.333-3 3-3s3 .333 3 3 .333 3 3 3 3-.333 3-3c0-2.533.389-3 2.5-3s2.5.467 2.5 3c0 2.667.333 3 3 3s3-.333 3-3 .333-3 3-3 3 .333 3 3 .333 3 3 3 3-.333 3-3c0-2.533.389-3 2.5-3s2.5.467 2.5 3c0 2.667.333 3 3 3s3-.333 3-3 .333-3 3-3 3 .333 3 3 .333 3 3 3 3-.333 3-3c0-2.533.389-3 2.5-3s2.5.467 2.5 3c0 2.667.333 3 3 3s3-.333 3-3 .333-3 3-3 3 .333 3 3c0 2.533.389 3 2.5 3s2.5-.467 2.5-3-.389-3-2.5-3-2.5-.467-2.5-3 .389-3 2.5-3c2 0 2.5-.5 2.5-2.5s-.5-2.5-2.5-2.5c-2.111 0-2.5-.467-2.5-3s.389-3 2.5-3 2.5-.467 2.5-3-.389-3-2.5-3-2.5-.467-2.5-3 .389-3 2.5-3c2 0 2.5-.5 2.5-2.5s-.5-2.5-2.5-2.5c-2.111 0-2.5-.467-2.5-3s.389-3 2.5-3 2.5-.467 2.5-3-.389-3-2.5-3c-2 0-2.5-.5-2.5-2.5s.5-2.5 2.5-2.5c2.111 0 2.5-.467 2.5-3s-.389-3-2.5-3-2.5-.467-2.5-3 .389-3 2.5-3 2.5-.467 2.5-3-.389-3-2.5-3c-2 0-2.5-.5-2.5-2.5s.5-2.5 2.5-2.5c2.111 0 2.5-.467 2.5-3s-.389-3-2.5-3-2.5-.467-2.5-3 .389-3 2.5-3 2.5-.467 2.5-3-.389-3-2.5-3c-2 0-2.5-.5-2.5-2.5s.5-2.5 2.5-2.5c2.111 0 2.5-.467 2.5-3s-.389-3-2.5-3-2.5-.467-2.5-3 .389-3 2.5-3c2 0 2.5-.5 2.5-2.5s-.5-2.5-2.5-2.5c-2.111 0-2.5-.467-2.5-3s.389-3 2.5-3 2.5-.467 2.5-3-.389-3-2.5-3-2.5-.467-2.5-3 .389-3 2.5-3c2 0 2.5-.5 2.5-2.5s-.5-2.5-2.5-2.5c-2.111 0-2.5-.467-2.5-3s.389-3 2.5-3 2.5-.467 2.5-3-.389-3-2.5-3-2.5-.467-2.5-3 .389-3 2.5-3c2 0 2.5-.5 2.5-2.5s-.5-2.5-2.5-2.5c-2.111 0-2.5-.467-2.5-3s.389-3 2.5-3 2.5-.467 2.5-3-.389-3-2.5-3-2.5.467-2.5 3c0 2.667-.333 3-3 3s-3-.333-3-3-.333-3-3-3-3 .333-3 3c0 2.533-.389 3-2.5 3s-2.5-.467-2.5-3c0-2.667-.333-3-3-3s-3 .333-3 3-.333 3-3 3-3-.333-3-3-.333-3-3-3-3 .333-3 3c0 2.533-.389 3-2.5 3s-2.5-.467-2.5-3c0-2.667-.333-3-3-3s-3 .333-3 3-.333 3-3 3-3-.333-3-3-.333-3-3-3-3 .333-3 3c0 2.533-.389 3-2.5 3s-2.5-.467-2.5-3c0-2.667-.333-3-3-3s-3 .333-3 3-.333 3-3 3-3-.333-3-3c0-2.533-.389-3-2.5-3s-2.5.467-2.5 3c0 2.667-.333 3-3 3s-3-.333-3-3-.333-3-3-3-3 .333-3 3-.333 3-3 3-3-.333-3-3c0-2.533-.389-3-2.5-3s-2.5.467-2.5 3c0 2.667-.333 3-3 3s-3-.333-3-3-.333-3-3-3-3 .333-3 3m0 6c0 2.667.333 3 3 3 2.533 0 3 .389 3 2.5s-.467 2.5-3 2.5c-2.667 0-3 .333-3 3s.333 3 3 3 3 .333 3 3-.333 3-3 3-3 .333-3 3 .333 3 3 3c2.533 0 3 .389 3 2.5s-.467 2.5-3 2.5c-2.667 0-3 .333-3 3s.333 3 3 3 3 .333 3 3-.333 3-3 3-3 .333-3 3 .333 3 3 3c2.533 0 3 .389 3 2.5s-.467 2.5-3 2.5c-2.667 0-3 .333-3 3s.333 3 3 3 3 .333 3 3 .333 3 3 3c2.533 0 3 .389 3 2.5s-.467 2.5-3 2.5c-2.667 0-3 .333-3 3s-.333 3-3 3-3 .333-3 3 .333 3 3 3 3 .333 3 3 .333 3 3 3c2.533 0 3 .389 3 2.5s-.467 2.5-3 2.5c-2.667 0-3 .333-3 3s-.333 3-3 3-3 .333-3 3 .333 3 3 3 3 .333 3 3 .333 3 3 3c2.533 0 3 .389 3 2.5s-.467 2.5-3 2.5c-2.667 0-3 .333-3 3s-.333 3-3 3-3 .333-3 3 .333 3 3 3c2.533 0 3 .389 3 2.5s-.467 2.5-3 2.5c-2.667 0-3 .333-3 3s.333 3 3 3 3 .333 3 3-.333 3-3 3-3 .333-3 3 .333 3 3 3c2.533 0 3 .389 3 2.5s-.467 2.5-3 2.5c-2.667 0-3 .333-3 3s.333 3 3 3 3-.333 3-3 .333-3 3-3 3 .333 3 3c0 2.533.389 3 2.5 3s2.5-.467 2.5-3c0-2.667.333-3 3-3s3 .333 3 3 .333 3 3 3 3-.333 3-3 .333-3 3-3 3 .333 3 3c0 2.533.389 3 2.5 3s2.5-.467 2.5-3c0-2.667.333-3 3-3s3 .333 3 3 .333 3 3 3 3-.333 3-3c0-2.533.389-3 2.5-3s2.5.467 2.5 3c0 2.667.333 3 3 3s3-.333 3-3 .333-3 3-3 3 .333 3 3 .333 3 3 3 3-.333 3-3c0-2.533.389-3 2.5-3s2.5.467 2.5 3c0 2.667.333 3 3 3s3-.333 3-3 .333-3 3-3 3 .333 3 3 .333 3 3 3 3-.333 3-3c0-2.533.389-3 2.5-3s2.5.467 2.5 3c0 2.667.333 3 3 3s3-.333 3-3 .333-3 3-3c2.533 0 3-.389 3-2.5s-.467-2.5-3-2.5c-2.667 0-3-.333-3-3s.333-3 3-3 3-.333 3-3-.333-3-3-3-3-.333-3-3 .333-3 3-3c2.533 0 3-.389 3-2.5s-.467-2.5-3-2.5c-2.667 0-3-.333-3-3s.333-3 3-3 3-.333 3-3-.333-3-3-3c-2.533 0-3-.389-3-2.5s.467-2.5 3-2.5c2.667 0 3-.333 3-3s-.333-3-3-3-3-.333-3-3 .333-3 3-3 3-.333 3-3-.333-3-3-3c-2.533 0-3-.389-3-2.5s.467-2.5 3-2.5c2.667 0 3-.333 3-3s-.333-3-3-3-3-.333-3-3 .333-3 3-3 3-.333 3-3-.333-3-3-3c-2.533 0-3-.389-3-2.5s.467-2.5 3-2.5c2.667 0 3-.333 3-3s-.333-3-3-3-3-.333-3-3 .333-3 3-3c2.533 0 3-.389 3-2.5s-.467-2.5-3-2.5c-2.667 0-3-.333-3-3s.333-3 3-3 3-.333 3-3-.333-3-3-3-3-.333-3-3 .333-3 3-3c2.533 0 3-.389 3-2.5s-.467-2.5-3-2.5c-2.667 0-3-.333-3-3s.333-3 3-3 3-.333 3-3-.333-3-3-3-3-.333-3-3 .333-3 3-3c2.533 0 3-.389 3-2.5s-.467-2.5-3-2.5c-2.667 0-3-.333-3-3s-.333-3-3-3-3 .333-3 3c0 2.533-.389 3-2.5 3s-2.5-.467-2.5-3c0-2.667-.333-3-3-3s-3 .333-3 3-.333 3-3 3-3-.333-3-3-.333-3-3-3-3 .333-3 3c0 2.533-.389 3-2.5 3s-2.5-.467-2.5-3c0-2.667-.333-3-3-3s-3 .333-3 3-.333 3-3 3-3-.333-3-3-.333-3-3-3-3 .333-3 3c0 2.533-.389 3-2.5 3s-2.5-.467-2.5-3c0-2.667-.333-3-3-3s-3 .333-3 3-.333 3-3 3-3-.333-3-3c0-2.533-.389-3-2.5-3s-2.5.467-2.5 3c0 2.667-.333 3-3 3s-3-.333-3-3-.333-3-3-3-3 .333-3 3-.333 3-3 3-3-.333-3-3c0-2.533-.389-3-2.5-3s-2.5.467-2.5 3c0 2.667-.333 3-3 3s-3-.333-3-3-.333-3-3-3-3 .333-3 3M.195 53.5c.02 1.65.244 2.204.498 1.231s.237-2.323-.037-3-.481.119-.461 1.769M84 53.5c0 2.111-.467 2.5-3 2.5-2.667 0-3 .333-3 3s.333 3 3 3 3 .333 3 3-.333 3-3 3-3 .333-3 3 .333 3 3 3c2.533 0 3 .389 3 2.5s-.467 2.5-3 2.5c-2.667 0-3 .333-3 3s.333 3 3 3 3 .333 3 3-.333 3-3 3-3 .333-3 3 .333 3 3 3c2.533 0 3 .389 3 2.5s-.467 2.5-3 2.5c-2.667 0-3 .333-3 3s.333 3 3 3 3 .333 3 3c0 2.533.389 3 2.5 3 2 0 2.5.5 2.5 2.5s-.5 2.5-2.5 2.5c-2.111 0-2.5.467-2.5 3 0 2.667-.333 3-3 3s-3 .333-3 3 .333 3 3 3 3 .333 3 3c0 2.533.389 3 2.5 3 2 0 2.5.5 2.5 2.5s-.5 2.5-2.5 2.5c-2.111 0-2.5.467-2.5 3 0 2.667-.333 3-3 3s-3 .333-3 3 .333 3 3 3 3 .333 3 3c0 2.533.389 3 2.5 3 2 0 2.5.5 2.5 2.5s-.5 2.5-2.5 2.5c-2.111 0-2.5.467-2.5 3 0 2.667-.333 3-3 3s-3 .333-3 3 .333 3 3 3c2.533 0 3 .389 3 2.5s-.467 2.5-3 2.5c-2.667 0-3 .333-3 3s.333 3 3 3 3 .333 3 3-.333 3-3 3-3 .333-3 3 .333 3 3 3c2.533 0 3 .389 3 2.5 0 2 .5 2.5 2.5 2.5s2.5-.5 2.5-2.5c0-2.111.467-2.5 3-2.5s3 .389 3 2.5.467 2.5 3 2.5 3-.389 3-2.5.467-2.5 3-2.5 3 .389 3 2.5c0 2 .5 2.5 2.5 2.5s2.5-.5 2.5-2.5c0-2.111.467-2.5 3-2.5s3 .389 3 2.5.467 2.5 3 2.5 3-.389 3-2.5c0-2 .5-2.5 2.5-2.5s2.5.5 2.5 2.5c0 2.111.467 2.5 3 2.5s3-.389 3-2.5.467-2.5 3-2.5 3 .389 3 2.5.467 2.5 3 2.5 3-.389 3-2.5c0-2 .5-2.5 2.5-2.5s2.5.5 2.5 2.5c0 2.111.467 2.5 3 2.5s3-.389 3-2.5.467-2.5 3-2.5 3 .389 3 2.5.467 2.5 3 2.5 3-.389 3-2.5c0-2 .5-2.5 2.5-2.5s2.5.5 2.5 2.5c0 2.111.467 2.5 3 2.5s3-.389 3-2.5-.467-2.5-3-2.5c-2.667 0-3-.333-3-3s.333-3 3-3 3-.333 3-3-.333-3-3-3-3-.333-3-3 .333-3 3-3c2.533 0 3-.389 3-2.5s-.467-2.5-3-2.5c-2.667 0-3-.333-3-3s.333-3 3-3 3-.333 3-3-.333-3-3-3c-2.533 0-3-.389-3-2.5s.467-2.5 3-2.5c2.667 0 3-.333 3-3s-.333-3-3-3-3-.333-3-3 .333-3 3-3 3-.333 3-3-.333-3-3-3c-2.533 0-3-.389-3-2.5s.467-2.5 3-2.5c2.667 0 3-.333 3-3s-.333-3-3-3-3-.333-3-3 .333-3 3-3 3-.333 3-3-.333-3-3-3c-2.533 0-3-.389-3-2.5s.467-2.5 3-2.5c2.667 0 3-.333 3-3s-.333-3-3-3-3-.333-3-3 .333-3 3-3c2.533 0 3-.389 3-2.5s-.467-2.5-3-2.5c-2.667 0-3-.333-3-3s.333-3 3-3 3-.333 3-3-.333-3-3-3-3-.333-3-3 .333-3 3-3c2.533 0 3-.389 3-2.5s-.467-2.5-3-2.5c-2.667 0-3-.333-3-3s.333-3 3-3 3-.333 3-3-.333-3-3-3-3-.333-3-3 .333-3 3-3c2.533 0 3-.389 3-2.5s-.467-2.5-3-2.5-3 .389-3 2.5c0 2-.5 2.5-2.5 2.5s-2.5-.5-2.5-2.5c0-2.111-.467-2.5-3-2.5s-3 .389-3 2.5-.467 2.5-3 2.5-3-.389-3-2.5-.467-2.5-3-2.5-3 .389-3 2.5c0 2-.5 2.5-2.5 2.5s-2.5-.5-2.5-2.5c0-2.111-.467-2.5-3-2.5s-3 .389-3 2.5-.467 2.5-3 2.5-3-.389-3-2.5-.467-2.5-3-2.5-3 .389-3 2.5c0 2-.5 2.5-2.5 2.5s-2.5-.5-2.5-2.5c0-2.111-.467-2.5-3-2.5s-3 .389-3 2.5-.467 2.5-3 2.5-3-.389-3-2.5c0-2-.5-2.5-2.5-2.5s-2.5.5-2.5 2.5c0 2.111-.467 2.5-3 2.5s-3-.389-3-2.5-.467-2.5-3-2.5-3 .389-3 2.5-.467 2.5-3 2.5-3-.389-3-2.5c0-2-.5-2.5-2.5-2.5s-2.5.5-2.5 2.5m0 5.5c0 2.533.389 3 2.5 3s2.5.467 2.5 3-.389 3-2.5 3-2.5.467-2.5 3 .389 3 2.5 3c2 0 2.5.5 2.5 2.5s-.5 2.5-2.5 2.5c-2.111 0-2.5.467-2.5 3s.389 3 2.5 3 2.5.467 2.5 3-.389 3-2.5 3-2.5.467-2.5 3 .389 3 2.5 3c2 0 2.5.5 2.5 2.5s-.5 2.5-2.5 2.5c-2.111 0-2.5.467-2.5 3s.389 3 2.5 3 2.5.467 2.5 3c0 2.667.333 3 3 3 2.533 0 3 .389 3 2.5s-.467 2.5-3 2.5c-2.667 0-3 .333-3 3 0 2.533-.389 3-2.5 3s-2.5.467-2.5 3 .389 3 2.5 3 2.5.467 2.5 3c0 2.667.333 3 3 3 2.533 0 3 .389 3 2.5s-.467 2.5-3 2.5c-2.667 0-3 .333-3 3 0 2.533-.389 3-2.5 3s-2.5.467-2.5 3 .389 3 2.5 3 2.5.467 2.5 3c0 2.667.333 3 3 3 2.533 0 3 .389 3 2.5s-.467 2.5-3 2.5c-2.667 0-3 .333-3 3 0 2.533-.389 3-2.5 3s-2.5.467-2.5 3 .389 3 2.5 3c2 0 2.5.5 2.5 2.5s-.5 2.5-2.5 2.5c-2.111 0-2.5.467-2.5 3s.389 3 2.5 3 2.5.467 2.5 3-.389 3-2.5 3-2.5.467-2.5 3 .389 3 2.5 3 2.5-.467 2.5-3c0-2.667.333-3 3-3s3 .333 3 3 .333 3 3 3 3-.333 3-3 .333-3 3-3 3 .333 3 3c0 2.533.389 3 2.5 3s2.5-.467 2.5-3c0-2.667.333-3 3-3s3 .333 3 3 .333 3 3 3 3-.333 3-3c0-2.533.389-3 2.5-3s2.5.467 2.5 3c0 2.667.333 3 3 3s3-.333 3-3 .333-3 3-3 3 .333 3 3 .333 3 3 3 3-.333 3-3c0-2.533.389-3 2.5-3s2.5.467 2.5 3c0 2.667.333 3 3 3s3-.333 3-3 .333-3 3-3 3 .333 3 3 .333 3 3 3 3-.333 3-3c0-2.533.389-3 2.5-3s2.5-.467 2.5-3-.389-3-2.5-3-2.5-.467-2.5-3 .389-3 2.5-3c2 0 2.5-.5 2.5-2.5s-.5-2.5-2.5-2.5c-2.111 0-2.5-.467-2.5-3s.389-3 2.5-3 2.5-.467 2.5-3-.389-3-2.5-3c-2 0-2.5-.5-2.5-2.5s.5-2.5 2.5-2.5c2.111 0 2.5-.467 2.5-3s-.389-3-2.5-3-2.5-.467-2.5-3 .389-3 2.5-3 2.5-.467 2.5-3-.389-3-2.5-3c-2 0-2.5-.5-2.5-2.5s.5-2.5 2.5-2.5c2.111 0 2.5-.467 2.5-3s-.389-3-2.5-3-2.5-.467-2.5-3 .389-3 2.5-3 2.5-.467 2.5-3-.389-3-2.5-3c-2 0-2.5-.5-2.5-2.5s.5-2.5 2.5-2.5c2.111 0 2.5-.467 2.5-3s-.389-3-2.5-3-2.5-.467-2.5-3 .389-3 2.5-3c2 0 2.5-.5 2.5-2.5s-.5-2.5-2.5-2.5c-2.111 0-2.5-.467-2.5-3s.389-3 2.5-3 2.5-.467 2.5-3-.389-3-2.5-3-2.5-.467-2.5-3 .389-3 2.5-3c2 0 2.5-.5 2.5-2.5s-.5-2.5-2.5-2.5c-2.111 0-2.5-.467-2.5-3s.389-3 2.5-3 2.5-.467 2.5-3-.389-3-2.5-3-2.5-.467-2.5-3c0-2.667-.333-3-3-3s-3 .333-3 3-.333 3-3 3-3-.333-3-3-.333-3-3-3-3 .333-3 3c0 2.533-.389 3-2.5 3s-2.5-.467-2.5-3c0-2.667-.333-3-3-3s-3 .333-3 3-.333 3-3 3-3-.333-3-3-.333-3-3-3-3 .333-3 3c0 2.533-.389 3-2.5 3s-2.5-.467-2.5-3c0-2.667-.333-3-3-3s-3 .333-3 3-.333 3-3 3-3-.333-3-3c0-2.533-.389-3-2.5-3s-2.5.467-2.5 3c0 2.667-.333 3-3 3s-3-.333-3-3-.333-3-3-3-3 .333-3 3-.333 3-3 3-3-.333-3-3c0-2.533-.389-3-2.5-3s-2.5.467-2.5 3M.232 65c0 1.925.206 2.713.457 1.75.252-.963.252-2.537 0-3.5-.251-.962-.457-.175-.457 1.75M95 65c0 2.667-.333 3-3 3s-3 .333-3 3 .333 3 3 3c2.533 0 3 .389 3 2.5s-.467 2.5-3 2.5c-2.667 0-3 .333-3 3s.333 3 3 3 3 .333 3 3-.333 3-3 3-3 .333-3 3 .333 3 3 3c2.533 0 3 .389 3 2.5s-.467 2.5-3 2.5c-2.667 0-3 .333-3 3s.333 3 3 3 3 .333 3 3 .333 3 3 3c2.533 0 3 .389 3 2.5s-.467 2.5-3 2.5c-2.667 0-3 .333-3 3s-.333 3-3 3-3 .333-3 3 .333 3 3 3 3 .333 3 3 .333 3 3 3c2.533 0 3 .389 3 2.5s-.467 2.5-3 2.5c-2.667 0-3 .333-3 3s-.333 3-3 3-3 .333-3 3 .333 3 3 3 3 .333 3 3 .333 3 3 3c2.533 0 3 .389 3 2.5s-.467 2.5-3 2.5c-2.667 0-3 .333-3 3s-.333 3-3 3-3 .333-3 3 .333 3 3 3c2.533 0 3 .389 3 2.5s-.467 2.5-3 2.5c-2.667 0-3 .333-3 3s.333 3 3 3 3 .333 3 3 .333 3 3 3 3-.333 3-3 .333-3 3-3 3 .333 3 3c0 2.533.389 3 2.5 3s2.5-.467 2.5-3c0-2.667.333-3 3-3s3 .333 3 3 .333 3 3 3 3-.333 3-3c0-2.533.389-3 2.5-3s2.5.467 2.5 3c0 2.667.333 3 3 3s3-.333 3-3 .333-3 3-3 3 .333 3 3 .333 3 3 3 3-.333 3-3c0-2.533.389-3 2.5-3s2.5.467 2.5 3c0 2.667.333 3 3 3s3-.333 3-3 .333-3 3-3 3 .333 3 3 .333 3 3 3 3-.333 3-3-.333-3-3-3-3-.333-3-3 .333-3 3-3c2.533 0 3-.389 3-2.5s-.467-2.5-3-2.5c-2.667 0-3-.333-3-3s.333-3 3-3 3-.333 3-3-.333-3-3-3c-2.533 0-3-.389-3-2.5s.467-2.5 3-2.5c2.667 0 3-.333 3-3s-.333-3-3-3-3-.333-3-3 .333-3 3-3 3-.333 3-3-.333-3-3-3c-2.533 0-3-.389-3-2.5s.467-2.5 3-2.5c2.667 0 3-.333 3-3s-.333-3-3-3-3-.333-3-3 .333-3 3-3 3-.333 3-3-.333-3-3-3c-2.533 0-3-.389-3-2.5s.467-2.5 3-2.5c2.667 0 3-.333 3-3s-.333-3-3-3-3-.333-3-3 .333-3 3-3c2.533 0 3-.389 3-2.5s-.467-2.5-3-2.5c-2.667 0-3-.333-3-3s.333-3 3-3 3-.333 3-3-.333-3-3-3-3-.333-3-3 .333-3 3-3c2.533 0 3-.389 3-2.5s-.467-2.5-3-2.5c-2.667 0-3-.333-3-3s.333-3 3-3 3-.333 3-3-.333-3-3-3-3 .333-3 3-.333 3-3 3-3-.333-3-3-.333-3-3-3-3 .333-3 3c0 2.533-.389 3-2.5 3s-2.5-.467-2.5-3c0-2.667-.333-3-3-3s-3 .333-3 3-.333 3-3 3-3-.333-3-3-.333-3-3-3-3 .333-3 3c0 2.533-.389 3-2.5 3s-2.5-.467-2.5-3c0-2.667-.333-3-3-3s-3 .333-3 3-.333 3-3 3-3-.333-3-3c0-2.533-.389-3-2.5-3s-2.5.467-2.5 3c0 2.667-.333 3-3 3s-3-.333-3-3-.333-3-3-3-3 .333-3 3m143 0c0 2.667.333 3 3 3s3-.333 3-3-.333-3-3-3-3 .333-3 3m-3 5.531c0 2.417.455 3.469 1.5 3.469.933 0 1.5.944 1.5 2.5s-.567 2.5-1.5 2.5c-1.045 0-1.5 1.052-1.5 3.469 0 2.672.344 3.336 1.5 2.893.855-.328 1.5-1.82 1.5-3.469 0-2.548.358-2.893 3-2.893 2.533 0 3-.389 3-2.5s-.467-2.5-3-2.5c-2.642 0-3-.345-3-2.893 0-1.649-.645-3.141-1.5-3.469-1.156-.443-1.5.221-1.5 2.893M95 71c0 2.667.333 3 3 3 2.533 0 3 .389 3 2.5s-.467 2.5-3 2.5c-2.667 0-3 .333-3 3s.333 3 3 3 3 .333 3 3-.333 3-3 3-3 .333-3 3 .333 3 3 3c2.533 0 3 .389 3 2.5s-.467 2.5-3 2.5c-2.667 0-3 .333-3 3s.333 3 3 3 3 .333 3 3 .333 3 3 3 3-.333 3-3-.333-3-3-3-3-.333-3-3 .333-3 3-3 3 .333 3 3c0 2.533.389 3 2.5 3s2.5-.467 2.5-3c0-2.667.333-3 3-3 2.497 0 3 .401 3 2.392 0 1.732-.706 2.568-2.561 3.034-2.644.664-8.393 6.448-9.657 9.718-.395 1.021-1.632 1.856-2.75 1.856-1.591 0-2.032.651-2.032 3 0 1.945.507 3 1.441 3 .793 0 1.671.372 1.952.826.886 1.435-.566 5.174-2.01 5.174-.863 0-1.383 1.103-1.383 2.934 0 2.456.447 2.985 2.75 3.25 1.969.226 2.841.955 3.07 2.566.271 1.914-.139 2.25-2.75 2.25-2.744 0-3.07.318-3.07 3 0 2.667-.333 3-3 3s-3 .333-3 3 .333 3 3 3 3 .333 3 3 .333 3 3 3c2.533 0 3 .389 3 2.5s-.467 2.5-3 2.5c-2.667 0-3 .333-3 3s-.333 3-3 3-3 .333-3 3 .333 3 3 3c2.533 0 3 .389 3 2.5s-.467 2.5-3 2.5c-2.667 0-3 .333-3 3s.333 3 3 3 3-.333 3-3 .333-3 3-3 3 .333 3 3c0 2.533.389 3 2.5 3s2.5-.467 2.5-3c0-2.667.333-3 3-3s3 .333 3 3 .333 3 3 3 3-.333 3-3c0-2.533.389-3 2.5-3s2.5.467 2.5 3c0 2.667.333 3 3 3s3-.333 3-3 .333-3 3-3 3 .333 3 3 .333 3 3 3 3-.333 3-3c0-2.533.389-3 2.5-3s2.5.467 2.5 3c0 2.667.333 3 3 3s3-.333 3-3 .333-3 3-3c2.533 0 3-.389 3-2.5s-.467-2.5-3-2.5c-2.667 0-3-.333-3-3s.333-3 3-3 3-.333 3-3-.333-3-3-3c-2.533 0-3-.389-3-2.5s.467-2.5 3-2.5c2.667 0 3-.333 3-3s-.333-3-3-3-3-.333-3-3 .333-3 3-3 3-.333 3-3-.333-3-3-3c-2.533 0-3-.389-3-2.5s.467-2.5 3-2.5c2.667 0 3-.333 3-3s-.333-3-3-3-3-.333-3-3 .333-3 3-3 3-.333 3-3-.333-3-3-3c-2.533 0-3-.389-3-2.5s.467-2.5 3-2.5c2.667 0 3-.333 3-3s-.333-3-3-3-3-.333-3-3 .333-3 3-3c2.533 0 3-.389 3-2.5s-.467-2.5-3-2.5c-2.667 0-3-.333-3-3s.333-3 3-3 3-.333 3-3-.333-3-3-3-3-.333-3-3 .333-3 3-3c2.533 0 3-.389 3-2.5s-.467-2.5-3-2.5c-2.667 0-3-.333-3-3s-.333-3-3-3-3 .333-3 3c0 2.533-.389 3-2.5 3s-2.5-.467-2.5-3c0-2.667-.333-3-3-3s-3 .333-3 3-.333 3-3 3-3-.333-3-3-.333-3-3-3-3 .333-3 3c0 2.533-.389 3-2.5 3s-2.5-.467-2.5-3c0-2.667-.333-3-3-3s-3 .333-3 3-.333 3-3 3-3-.333-3-3c0-2.533-.389-3-2.5-3s-2.5.467-2.5 3c0 2.667-.333 3-3 3s-3-.333-3-3-.333-3-3-3-3 .333-3 3M.195 76.5c.02 1.65.244 2.204.498 1.231s.237-2.323-.037-3-.481.119-.461 1.769M107 76.5c0 2.111-.467 2.5-3 2.5-2.667 0-3 .333-3 3s.333 3 3 3 3 .333 3 3-.333 3-3 3-3 .333-3 3 .333 3 3 3c2.533 0 3 .389 3 2.5 0 2 .5 2.5 2.5 2.5s2.5-.5 2.5-2.5c0-2.111.467-2.5 3-2.5s3 .389 3 2.5.467 2.5 3 2.5c2.333 0 3 .444 3 2 0 1.429.667 2 2.333 2 1.284 0 2.603-.269 2.931-.598 1.246-1.245-.575-3.402-2.871-3.402-1.886 0-2.393-.53-2.393-2.5 0-2 .5-2.5 2.5-2.5s2.5.5 2.5 2.5c0 2.111.467 2.5 3 2.5 2.667 0 3 .333 3 3 0 2.652.341 3 2.934 3 2.456 0 2.985.447 3.25 2.75.252 2.191.899 2.817 3.181 3.078 2.743.313 2.843.506 2.342 4.5-.288 2.294-.307 3.385-.042 2.422.29-1.054 1.447-1.75 2.908-1.75 2.008 0 2.427.498 2.427 2.883 0 2.282-.522 2.984-2.5 3.362-1.718.328-2.5.033-2.5-.943 0-.781-.45-1.142-1-.802-1.266.782-1.31 5.19-.06 5.963.556.344.347 1.999-.514 4.059-1.286 3.079-1.279 3.478.061 3.478.964 0 1.513.946 1.513 2.609 0 2.38-.3 2.575-3.403 2.213-3.346-.391-3.394-.343-2.869 2.89.508 3.131.384 3.288-2.597 3.288-1.722 0-3.131-.48-3.131-1.067 0-.668-.844-.781-2.25-.302-1.238.421-4.162.658-6.5.527-2.429-.136-4.25.208-4.25.802 0 .572.45 1.04 1 1.04s1 1.125 1 2.5c0 2.111-.467 2.5-3 2.5-2.648 0-3-.343-3-2.917 0-1.604.563-3.129 1.25-3.388s-.627-.242-2.922.038c-3.991.487-4.186.385-4.5-2.362-.239-2.091-.94-2.958-2.578-3.191-1.914-.271-2.25.139-2.25 2.75 0 2.744-.318 3.07-3 3.07-2.667 0-3 .333-3 3s.333 3 3 3 3 .333 3 3c0 2.533.389 3 2.5 3 2 0 2.5.5 2.5 2.5s-.5 2.5-2.5 2.5c-2.111 0-2.5.467-2.5 3 0 2.667-.333 3-3 3s-3 .333-3 3 .333 3 3 3c2.533 0 3 .389 3 2.5 0 2 .5 2.5 2.5 2.5s2.5-.5 2.5-2.5c0-2.111.467-2.5 3-2.5s3 .389 3 2.5.467 2.5 3 2.5 3-.389 3-2.5c0-2 .5-2.5 2.5-2.5s2.5.5 2.5 2.5c0 2.111.467 2.5 3 2.5s3-.389 3-2.5.467-2.5 3-2.5 3 .389 3 2.5.467 2.5 3 2.5 3-.389 3-2.5c0-2 .5-2.5 2.5-2.5s2.5.5 2.5 2.5c0 2.111.467 2.5 3 2.5s3-.389 3-2.5-.467-2.5-3-2.5c-2.667 0-3-.333-3-3s.333-3 3-3 3-.333 3-3-.333-3-3-3c-2.533 0-3-.389-3-2.5s.467-2.5 3-2.5c2.667 0 3-.333 3-3s-.333-3-3-3-3-.333-3-3 .333-3 3-3 3-.333 3-3-.333-3-3-3c-2.533 0-3-.389-3-2.5s.467-2.5 3-2.5c2.667 0 3-.333 3-3s-.333-3-3-3-3-.333-3-3 .333-3 3-3 3-.333 3-3-.333-3-3-3c-2.533 0-3-.389-3-2.5s.467-2.5 3-2.5c2.667 0 3-.333 3-3s-.333-3-3-3-3-.333-3-3 .333-3 3-3c2.533 0 3-.389 3-2.5s-.467-2.5-3-2.5c-2.667 0-3-.333-3-3s.333-3 3-3 3-.333 3-3-.333-3-3-3-3-.333-3-3 .333-3 3-3c2.533 0 3-.389 3-2.5s-.467-2.5-3-2.5-3 .389-3 2.5c0 2-.5 2.5-2.5 2.5s-2.5-.5-2.5-2.5c0-2.111-.467-2.5-3-2.5s-3 .389-3 2.5-.467 2.5-3 2.5-3-.389-3-2.5-.467-2.5-3-2.5-3 .389-3 2.5c0 2-.5 2.5-2.5 2.5s-2.5-.5-2.5-2.5c0-2.111-.467-2.5-3-2.5s-3 .389-3 2.5-.467 2.5-3 2.5-3-.389-3-2.5c0-2-.5-2.5-2.5-2.5s-2.5.5-2.5 2.5m0 5.5c0 2.533.389 3 2.5 3s2.5.467 2.5 3-.389 3-2.5 3-2.5.467-2.5 3 .389 3 2.5 3 2.5-.467 2.5-3c0-2.667.333-3 3-3s3 .333 3 3 .333 3 3 3 3-.333 3-3c0-2.533.389-3 2.5-3s2.5.467 2.5 3c0 2.667.333 3 3 3 2.533 0 3 .389 3 2.5s.467 2.5 3 2.5c2.667 0 3 .333 3 3s.333 3 3 3 3 .333 3 3c0 2.533.389 3 2.5 3s2.5-.467 2.5-3-.389-3-2.5-3-2.5-.467-2.5-3 .389-3 2.5-3c2 0 2.5-.5 2.5-2.5s-.5-2.5-2.5-2.5c-2.111 0-2.5-.467-2.5-3s.389-3 2.5-3 2.5-.467 2.5-3-.389-3-2.5-3-2.5-.467-2.5-3c0-2.667-.333-3-3-3s-3 .333-3 3-.333 3-3 3-3-.333-3-3-.333-3-3-3-3 .333-3 3c0 2.533-.389 3-2.5 3s-2.5-.467-2.5-3c0-2.667-.333-3-3-3s-3 .333-3 3-.333 3-3 3-3-.333-3-3c0-2.533-.389-3-2.5-3s-2.5.467-2.5 3M.232 88c0 1.925.206 2.713.457 1.75.252-.963.252-2.537 0-3.5-.251-.963-.457-.175-.457 1.75M118 88c0 2.667.333 3 3 3s3-.333 3-3-.333-3-3-3-3 .333-3 3m11 0c0 2.667.333 3 3 3s3 .333 3 3 .333 3 3 3c2.533 0 3 .389 3 2.5s.467 2.5 3 2.5 3-.389 3-2.5-.467-2.5-3-2.5c-2.667 0-3-.333-3-3s.333-3 3-3 3-.333 3-3-.333-3-3-3-3 .333-3 3-.333 3-3 3-3-.333-3-3-.333-3-3-3-3 .333-3 3m109 0c0 2.667.333 3 3 3s3-.333 3-3-.333-3-3-3-3 .333-3 3m-3 5.531c0 2.242.442 3.381 1.25 3.219.703-.141 1.388.953 1.566 2.5.226 1.964-.131 2.75-1.25 2.75-1.12 0-1.566.987-1.566 3.469 0 2.672.344 3.336 1.5 2.893.855-.328 1.5-1.82 1.5-3.469 0-2.548.358-2.893 3-2.893 2.533 0 3-.389 3-2.5s-.467-2.5-3-2.5c-2.642 0-3-.345-3-2.893 0-1.649-.645-3.141-1.5-3.469-1.156-.443-1.5.221-1.5 2.893M.195 99.5c.02 1.65.244 2.204.498 1.231s.237-2.323-.037-3-.481.119-.461 1.769M.232 111c0 1.925.206 2.713.457 1.75.252-.963.252-2.537 0-3.5-.251-.963-.457-.175-.457 1.75M238 111c0 2.667.333 3 3 3s3-.333 3-3-.333-3-3-3-3 .333-3 3m-221.25 2.689c-2.483.649-2.292 4.936.25 5.601 1.711.447 2 .03 2-2.884 0-1.873-.113-3.354-.25-3.29s-1.038.322-2 .573M51 116.5c0 2.82.297 3.235 2 2.79 1.258-.329 2-1.364 2-2.79s-.742-2.461-2-2.79c-1.703-.445-2-.03-2 2.79m184 0c0 2.644.346 3.304 1.5 2.862.825-.317 1.5-1.605 1.5-2.862s-.675-2.545-1.5-2.862c-1.154-.442-1.5.218-1.5 2.862M.232 122c0 1.925.206 2.713.457 1.75.252-.963.252-2.537 0-3.5-.251-.963-.457-.175-.457 1.75M9 122c0 2.667.333 3 3 3s3 .333 3 3-.333 3-3 3-3 .333-3 3 .333 3 3 3 3-.333 3-3c0-2.333.444-3 2-3s2-.667 2-3-.444-3-2-3-2-.667-2-3c0-2.667-.333-3-3-3s-3 .333-3 3m229 0q0 3-1.5 3t-1.5 3 1.5 3 1.5 3c0 2.667.333 3 3 3s3-.333 3-3-.333-3-3-3-3-.333-3-3 .333-3 3-3 3-.333 3-3-.333-3-3-3-3 .333-3 3m-143 6c0 2.667.333 3 3 3s3-.333 3-3-.333-3-3-3-3 .333-3 3M.232 134c0 1.925.206 2.713.457 1.75.252-.963.252-2.537 0-3.5-.251-.963-.457-.175-.457 1.75M147 134c0 2.533.389 3 2.5 3s2.5-.467 2.5-3-.389-3-2.5-3-2.5.467-2.5 3m-130.25 2.689c-2.483.649-2.292 4.936.25 5.601 1.711.447 2 .03 2-2.884 0-1.873-.113-3.354-.25-3.29s-1.038.322-2 .573M51 139.5c0 2.82.297 3.235 2 2.79 1.258-.329 2-1.364 2-2.79s-.742-2.461-2-2.79c-1.703-.445-2-.03-2 2.79m184 0c0 2.644.346 3.304 1.5 2.862.825-.317 1.5-1.605 1.5-2.862s-.675-2.545-1.5-2.862c-1.154-.442-1.5.218-1.5 2.862M.232 145c0 1.925.206 2.713.457 1.75.252-.963.252-2.537 0-3.5-.251-.963-.457-.175-.457 1.75M9 145c0 2.667.333 3 3 3s3 .333 3 3-.333 3-3 3-3 .333-3 3 .333 3 3 3 3-.333 3-3c0-2.333.444-3 2-3s2-.667 2-3-.444-3-2-3-2-.667-2-3c0-2.667-.333-3-3-3s-3 .333-3 3m138 0c0 2.667-.333 3-3 3s-3 .333-3 3-.333 3-3 3c-2.681 0-3-.326-3-3.066 0-2.756-.279-3.035-2.75-2.75-2.16.248-2.818.906-3.066 3.066-.249 2.16-.839 2.75-2.75 2.75-2.038 0-2.434.489-2.434 3 0 2.667-.333 3-3 3s-3-.333-3-3-.333-3-3-3-3-.333-3-3c0-2.533-.389-3-2.5-3s-2.5.467-2.5 3 .389 3 2.5 3 2.5.467 2.5 3c0 2.667.333 3 3 3 2.533 0 3 .389 3 2.5s-.467 2.5-3 2.5c-2.667 0-3 .333-3 3 0 2.533-.389 3-2.5 3s-2.5.467-2.5 3 .389 3 2.5 3 2.5-.467 2.5-3c0-2.667.333-3 3-3s3 .333 3 3 .333 3 3 3 3-.333 3-3c0-2.533.389-3 2.5-3s2.5.467 2.5 3c0 2.667.333 3 3 3s3-.333 3-3 .333-3 3-3 3 .333 3 3 .333 3 3 3 3-.333 3-3c0-2.533.389-3 2.5-3s2.5-.467 2.5-3-.389-3-2.5-3c-2 0-2.5-.5-2.5-2.5s.5-2.5 2.5-2.5c2.111 0 2.5-.467 2.5-3s-.389-3-2.5-3-2.5-.467-2.5-3 .389-3 2.5-3 2.5-.467 2.5-3-.389-3-2.5-3-2.5.467-2.5 3m91 0q0 3-1.5 3t-1.5 3 1.5 3 1.5 3c0 2.667.333 3 3 3s3-.333 3-3-.333-3-3-3-3-.333-3-3 .333-3 3-3 3-.333 3-3-.333-3-3-3-3 .333-3 3M.232 157c0 1.925.206 2.713.457 1.75.252-.963.252-2.537 0-3.5-.251-.963-.457-.175-.457 1.75M129 157c0 2.533-.389 3-2.5 3-2 0-2.5.5-2.5 2.5 0 2.111-.467 2.5-3 2.5-2.667 0-3 .333-3 3s.333 3 3 3 3-.333 3-3c0-2.533.389-3 2.5-3s2.5.467 2.5 3c0 2.667.333 3 3 3s3-.333 3-3 .333-3 3-3 3 .333 3 3 .333 3 3 3 3-.333 3-3-.333-3-3-3c-2.533 0-3-.389-3-2.5s.467-2.5 3-2.5c2.667 0 3-.333 3-3s-.333-3-3-3-3 .333-3 3-.333 3-3 3-3-.333-3-3-.333-3-3-3-3 .333-3 3m-112.25 2.689c-2.483.649-2.292 4.936.25 5.601 1.711.447 2 .03 2-2.884 0-1.873-.113-3.354-.25-3.29s-1.038.322-2 .573M51 162.5c0 2.82.297 3.235 2 2.79 1.258-.329 2-1.364 2-2.79s-.742-2.461-2-2.79c-1.703-.445-2-.03-2 2.79m184 0c0 2.644.346 3.304 1.5 2.862.825-.317 1.5-1.605 1.5-2.862s-.675-2.545-1.5-2.862c-1.154-.442-1.5.218-1.5 2.862m-106 0c0 2.111.467 2.5 3 2.5s3-.389 3-2.5-.467-2.5-3-2.5-3 .389-3 2.5M.232 168c0 1.925.206 2.713.457 1.75.252-.963.252-2.537 0-3.5-.251-.963-.457-.175-.457 1.75M238 168c0 2.667.333 3 3 3s3-.333 3-3-.333-3-3-3-3 .333-3 3m-3 5.531c0 2.482.446 3.469 1.566 3.469 1.119 0 1.476.786 1.25 2.75-.178 1.547-.863 2.641-1.566 2.5-.808-.162-1.25.977-1.25 3.219 0 2.672.344 3.336 1.5 2.893.855-.328 1.5-1.82 1.5-3.469 0-2.548.358-2.893 3-2.893 2.533 0 3-.389 3-2.5s-.467-2.5-3-2.5c-2.642 0-3-.345-3-2.893 0-1.649-.645-3.141-1.5-3.469-1.156-.443-1.5.221-1.5 2.893M.195 179.5c.02 1.65.244 2.204.498 1.231s.237-2.323-.037-3-.481.119-.461 1.769M.232 191c0 1.925.206 2.713.457 1.75.252-.963.252-2.537 0-3.5-.251-.963-.457-.175-.457 1.75M238 191c0 2.667.333 3 3 3s3-.333 3-3-.333-3-3-3-3 .333-3 3M.195 202.5c.02 1.65.244 2.204.498 1.231s.237-2.323-.037-3-.481.119-.461 1.769M.232 214c0 1.925.206 2.713.457 1.75.252-.963.252-2.537 0-3.5-.251-.963-.457-.175-.457 1.75M15 214c0 2.667.333 3 3 3s3 .333 3 3-.333 3-3 3c-2.533 0-3 .389-3 2.5s.467 2.5 3 2.5 3-.389 3-2.5c0-2 .5-2.5 2.5-2.5 2.111 0 2.5-.467 2.5-3s-.389-3-2.5-3-2.5-.467-2.5-3c0-2.667-.333-3-3-3s-3 .333-3 3M.195 225.5c.02 1.65.244 2.204.498 1.231s.237-2.323-.037-3-.481.119-.461 1.769m232.805 0c0 2 .5 2.5 2.5 2.5s2.5-.5 2.5-2.5-.5-2.5-2.5-2.5-2.5.5-2.5 2.5M.232 237c0 1.925.206 2.713.457 1.75.252-.963.252-2.537 0-3.5-.251-.963-.457-.175-.457 1.75"/></svg>